<?xml version="1.0" encoding="utf-8"?>
<!-- Generator: Adobe Illustrator 24.3.0, SVG Export Plug-In . SVG Version: 6.00 Build 0)  -->
<svg version="1.1" id="Слой_1" xmlns="http://www.w3.org/2000/svg" xmlns:xlink="http://www.w3.org/1999/xlink" x="0px" y="0px"
	 viewBox="0 0 82 82" style="enable-background:new 0 0 82 82;" xml:space="preserve">
<style type="text/css">
	.st0{fill:url(#SVGID_1_);}
	.st1{fill:#FFFFFF;}
</style>
<g id="Слой_1_1_">
	<linearGradient id="SVGID_1_" gradientUnits="userSpaceOnUse" x1="19.9298" y1="84.2003" x2="61.7714" y2="-1.5877">
		<stop  offset="0.1468" style="stop-color:#1A61CC"/>
		<stop  offset="0.9203" style="stop-color:#00B8FF"/>
	</linearGradient>
	<path class="st0" d="M20.1,0h41.9C73,0,82,9,82,20.1v41.9C82,73,73,82,61.9,82H20.1C9,82,0,73,0,61.9V20.1C0,9,9,0,20.1,0z"/>
</g>
<g id="Слой_2_1_">
	<rect x="17.6" y="58.4" class="st1" width="47.4" height="5.6"/>
	<rect x="17.6" y="28.7" class="st1" width="47.4" height="5.6"/>
	<polygon class="st1" points="41.3,16.6 18.7,25.9 64,25.9 	"/>
	<rect x="21.8" y="37" class="st1" width="5.6" height="18.6"/>
	<rect x="33" y="37" class="st1" width="5.6" height="18.6"/>
	<rect x="44.1" y="37" class="st1" width="5.6" height="18.6"/>
	<rect x="55.3" y="37" class="st1" width="5.6" height="18.6"/>
</g>
</svg>
