<svg id="Слой_1" data-name="Слой 1" xmlns="http://www.w3.org/2000/svg" viewBox="0 0 314.01 629"><defs><style>.cls-1{fill:#37383c;}.cls-2{fill:#26272b;}.cls-3{fill:#1e1d21;}</style></defs><path class="cls-1" d="M312.31,144.72l1.35.64a.61.61,0,0,1,.35.55v70.63a.68.68,0,0,1-.4.62l-1.82.84h-2.6V144.48h2a2.55,2.55,0,0,1,1.09.24ZM1.72,187.11l-1.11.63a.74.74,0,0,0-.37.64v43.29a.66.66,0,0,0,.4.6l1.68.71a1.3,1.3,0,0,0,.52.1H6V186.85H2.67a1.85,1.85,0,0,0-1,.26Zm.5-58.19-1.65.9a.61.61,0,0,0-.32.54v43.75a.57.57,0,0,0,.31.5l1.76.91a1,1,0,0,0,.44.11H4.42V128.75H2.88A1.38,1.38,0,0,0,2.22,128.92ZM2,84.77H1.36a.85.85,0,0,0-.6.24l-.51.48a.79.79,0,0,0-.25.58v21.8a.77.77,0,0,0,.25.57l.17.17a.89.89,0,0,0,.6.24H2.67a.83.83,0,0,0,.85-.81h0V85.58a.83.83,0,0,0-.84-.81Z" transform="translate(0 -0.01)"/><path class="cls-2" d="M312.41,271V575.33c0,41-25.25,53.62-53.64,53.62H176.28a9.1,9.1,0,0,1-2.9-.14l-.73-.24a9.24,9.24,0,0,0-2.86-.45H144.51a8.9,8.9,0,0,0-2.76.44l-.54.17a10.57,10.57,0,0,1-3.41.22H55.49c-28.38,0-53.63-12.61-53.63-53.62V53.62C1.86,12.62,27.11,0,55.49,0H258.78c28.38,0,53.63,12.62,53.63,53.62Z" transform="translate(0 -0.01)"/><path d="M295.14,12.39C286.37,5,274.08,1.29,258.61,1.29H55.32C39.85,1.29,27.56,5,18.79,12.39,8.4,21.11,3.14,34.93,3.14,53.47v521.7c0,18.54,5.26,32.36,15.65,41.08,8.77,7.36,21.06,11.1,36.53,11.1H258.61c15.47,0,27.76-3.74,36.53-11.1,10.39-8.72,15.66-22.54,15.66-41.08V53.47C310.8,34.93,305.53,21.11,295.14,12.39Z" transform="translate(0 -0.01)"/><path class="cls-3" d="M292.24,15.78c-8-6.74-19.45-10.15-34-10.15H56C41.47,5.63,30,9,22,15.78c-9.44,7.93-14.23,20.71-14.23,38V574.53c0,17.3,4.79,30.08,14.23,38,8,6.74,19.44,10.16,34,10.16H258.29c14.5,0,25.92-3.42,34-10.16,9.44-7.92,14.22-20.71,14.22-38V53.79c0-17.3-4.78-30.08-14.22-38Z" transform="translate(0 -0.01)"/><path d="M305.34,575c0,16.8-4.59,29.17-13.65,36.78-7.73,6.49-18.8,9.78-32.92,9.78H55.49c-14.12,0-25.19-3.29-32.92-9.78-9.06-7.61-13.65-20-13.65-36.78V53.31c0-16.8,4.59-29.17,13.65-36.78C30.3,10,41.37,6.75,55.49,6.75H258.77c14.12,0,25.19,3.29,32.92,9.78,9.06,7.61,13.65,20,13.65,36.78Z" transform="translate(0 -0.01)"/><path class="cls-1" d="M21.82,607.31c-2.19-4-6.78-13.7-6.78-33.57v-517c0-11.08-.19-25,9.78-40.26.54-.86.77-2.16-.07-1.6-.54.4-1.08.82-1.61,1.26a36.72,36.72,0,0,0-10.36,15.1A59.14,59.14,0,0,0,9.24,52.56V575.61c0,17.55,4.69,28.9,13.56,36.43C23.86,612.87,24,611.31,21.82,607.31Zm270.61,0c2.2-4,6.79-13.7,6.79-33.57v-517c0-11.08.18-25-9.79-40.26-.53-.86-.76-2.16.08-1.6.54.4,1.08.82,1.6,1.26a36.72,36.72,0,0,1,10.36,15.1A59.14,59.14,0,0,1,305,52.56V575.61c0,17.55-4.69,28.9-13.56,36.43-1.05.83-1.18-.73,1-4.73Z" transform="translate(0 -0.01)"/><path class="cls-2" d="M25.69,13.74s-15.17.67-20,18.27c5.77-8.25,10-9.09,10-9.09S19.61,16.52,25.69,13.74ZM25.3,614.18s-15.11-.67-19.91-18.3c5.74,8.28,10,9.11,10,9.11S19.24,611.39,25.3,614.18ZM288.64,13.82s15.11.67,19.91,18.25c-5.74-8.25-10-9.09-10-9.09S294.7,16.6,288.64,13.82ZM289,614.18s15.05-.67,19.83-18.3c-5.72,8.28-10,9.11-10,9.11S295.07,611.39,289,614.18Z" transform="translate(0 -0.01)"/></svg>