<svg xmlns="http://www.w3.org/2000/svg" viewBox="0 0 82 82"><defs><style>.cls-1{fill:#5a56a7;}.cls-2{fill:#fff;}</style></defs><g id="Слой_1" data-name="Слой 1"><rect class="cls-1" width="82" height="82" rx="12.93"/></g><g id="Слой_2" data-name="Слой 2"><path class="cls-2" d="M53.29,75.06A26.61,26.61,0,0,1,41.44,24.63a1.06,1.06,0,0,1,1.23.19,1.08,1.08,0,0,1,.2,1.23,24.23,24.23,0,0,0-2.5,10.78A24.51,24.51,0,0,0,64.85,61.31a24.18,24.18,0,0,0,10.89-2.56,1.07,1.07,0,0,1,1.43,1.43A26.45,26.45,0,0,1,53.29,75.06Z" transform="translate(-9 -9)"/></g></svg>