<?xml version="1.0" encoding="utf-8"?>
<!-- Generator: Adobe Illustrator 24.3.0, SVG Export Plug-In . SVG Version: 6.00 Build 0)  -->
<svg version="1.1" xmlns="http://www.w3.org/2000/svg" xmlns:xlink="http://www.w3.org/1999/xlink" x="0px" y="0px"
	 viewBox="0 0 120 120" style="enable-background:new 0 0 120 120;" xml:space="preserve">
<style type="text/css">
	.st0{fill-rule:evenodd;clip-rule:evenodd;fill:url(#SVGID_1_);}
	.st1{fill:#FFFFFF;}
</style>
<g id="Слой_1">
	
		<linearGradient id="SVGID_1_" gradientUnits="userSpaceOnUse" x1="-1770" y1="466" x2="-1650" y2="466" gradientTransform="matrix(6.123234e-17 -1 -1 -6.123234e-17 526 -1650)">
		<stop  offset="0" style="stop-color:#FD355A"/>
		<stop  offset="1" style="stop-color:#FD5163"/>
	</linearGradient>
	<path class="st0" d="M94,120H26c-14.3,0-26-11.6-26-25.9c0,0,0-0.1,0-0.1V26C0,11.7,11.6,0,25.9,0c0,0,0.1,0,0.1,0h68
		c14.3,0,26,11.6,26,25.9c0,0,0,0.1,0,0.1v68c0,14.3-11.6,26-25.9,26C94.1,120,94,120,94,120z"/>
</g>
<g id="Слой_2">
	<g>
		<path class="st1" d="M41.4,60.3c-6.1,0-11,4.9-11,11s4.9,11,11,11s11-4.9,11-11S47.5,60.3,41.4,60.3z M41.4,77.7
			c-3.5,0-6.4-2.9-6.4-6.4c0-3.5,2.9-6.4,6.4-6.4s6.4,2.9,6.4,6.4C47.7,74.8,44.9,77.7,41.4,77.7z"/>
		<path class="st1" d="M87.3,62.8H62.5c-1.3,0-2.3,1-2.3,2.3s1,2.3,2.3,2.3h24.8c1.3,0,2.3-1,2.3-2.3S88.6,62.8,87.3,62.8z"/>
		<path class="st1" d="M87.3,75.2H62.5c-1.3,0-2.3,1-2.3,2.3s1,2.3,2.3,2.3h24.8c1.3,0,2.3-1,2.3-2.3S88.6,75.2,87.3,75.2z"/>
		<path class="st1" d="M90.4,35.5h-1.5L57,25.6c-1.2-0.4-2.5,0.3-2.9,1.5c-0.4,1.2,0.3,2.5,1.5,2.9l17.5,5.4H29.6
			c-5.1,0-9.3,4.2-9.3,9.3V83c0,5.1,4.2,9.3,9.3,9.3h60.8c5.1,0,9.3-4.2,9.3-9.3c0-1.2,0-37.6,0-38.2C99.7,39.6,95.6,35.5,90.4,35.5
			L90.4,35.5z M24.9,44.8c0-2.6,2.1-4.7,4.7-4.7h60.8c2.6,0,4.7,2.1,4.7,4.7v5.6H43.7v-2.6c0-1.3-1-2.3-2.3-2.3s-2.3,1-2.3,2.3v2.6
			H24.9V44.8z M90.4,87.6H29.6c-2.6,0-4.7-2.1-4.7-4.7V55h70.1V83C95.1,85.5,93,87.6,90.4,87.6z"/>
	</g>
</g>
</svg>
