<svg xmlns="http://www.w3.org/2000/svg" viewBox="0 0 82 82"><defs><style>.cls-1{fill:#e9005e;}.cls-2{fill:#fff;}</style></defs><g id="Слой_1" data-name="Слой 1"><rect class="cls-1" width="82" height="82" rx="12.93"/></g><g id="Слой_2" data-name="Слой 2"><path class="cls-2" d="M50.31,66.61A2.33,2.33,0,0,1,48,68.94a2.32,2.32,0,0,1-1.48-.53L33.74,57.84H27a2.33,2.33,0,0,1-2.33-2.33V46.22A2.33,2.33,0,0,1,27,43.89h6.79L46.49,33.33a2.33,2.33,0,0,1,3.82,1.79V66.61Zm9-3.64H59.1a2.32,2.32,0,0,1-1.65-.68L57.14,62a2.33,2.33,0,0,1-.23-3,13.54,13.54,0,0,0-.36-16.61,2.33,2.33,0,0,1,.17-3.12L57,38.9a2.26,2.26,0,0,1,1.76-.68,2.32,2.32,0,0,1,1.69.85A18.67,18.67,0,0,1,61,62,2.36,2.36,0,0,1,59.27,63Zm9.64,7.2a2.34,2.34,0,0,1-1.69.83h-.1a2.3,2.3,0,0,1-1.64-.68L65.17,70A2.34,2.34,0,0,1,65,66.86a24.82,24.82,0,0,0-.41-32.46,2.35,2.35,0,0,1,.1-3.2l.3-.3a2.27,2.27,0,0,1,1.72-.69,2.36,2.36,0,0,1,1.68.78,30,30,0,0,1,.49,39.18Z" transform="translate(-9 -9)"/></g></svg>