<svg xmlns="http://www.w3.org/2000/svg" viewBox="0 0 82 82"><defs><style>.cls-1{fill:#45a5c6;}.cls-2{fill:#fff;}</style></defs><g id="Слой_1" data-name="Слой 1"><rect class="cls-1" width="82" height="82" rx="12.93"/></g><g id="Слой_2" data-name="Слой 2"><path class="cls-2" d="M69.92,52.11a24,24,0,0,0-5.22-2,24.52,24.52,0,0,0,5.22-2,8.16,8.16,0,1,0-8.16-14.14,24.83,24.83,0,0,0-4.37,3.51,24,24,0,0,0,.85-5.54,8.16,8.16,0,0,0-16.32,0,24.55,24.55,0,0,0,.85,5.54,24.44,24.44,0,0,0-4.36-3.51,8.16,8.16,0,0,0-8.16,14.14,24.31,24.31,0,0,0,5.22,2,23.8,23.8,0,0,0-5.22,2,8.16,8.16,0,1,0,8.16,14.13,23.9,23.9,0,0,0,4.36-3.5,24.56,24.56,0,0,0-.85,5.53,8.16,8.16,0,0,0,16.32,0,24,24,0,0,0-.85-5.53,24.27,24.27,0,0,0,4.37,3.5,8.16,8.16,0,1,0,8.16-14.13ZM31.79,45.37a5.07,5.07,0,1,1,5.07-8.78c2,1.15,5.22,4.27,7.74,7.45A7.69,7.69,0,0,0,43,46a8,8,0,0,0-.91,2.35C38.1,47.75,33.79,46.53,31.79,45.37Zm5.07,18.2a5.07,5.07,0,0,1-5.07-8.79c2-1.15,6.31-2.38,10.32-3a8.18,8.18,0,0,0,2.49,4.31c-2.52,3.17-5.74,6.29-7.74,7.45Zm13.22,9.78A5.09,5.09,0,0,1,45,68.27c0-2.3,1.1-6.65,2.59-10.42a8.11,8.11,0,0,0,5,0c1.49,3.77,2.59,8.12,2.59,10.42A5.09,5.09,0,0,1,50.08,73.35Zm0-18.2a5.07,5.07,0,1,1,5.08-5.07A5.08,5.08,0,0,1,50.08,55.15Zm2.49-12.84a8.11,8.11,0,0,0-5,0C46.11,38.54,45,34.19,45,31.88a5.08,5.08,0,0,1,10.15,0C55.16,34.19,54.06,38.54,52.57,42.31ZM63.3,36.59a5.07,5.07,0,1,1,5.08,8.78c-2,1.16-6.31,2.38-10.32,3A8.31,8.31,0,0,0,57.15,46a7.91,7.91,0,0,0-1.58-2C58.09,40.86,61.31,37.74,63.3,36.59Zm6.93,25.12a5.08,5.08,0,0,1-6.93,1.86c-2-1.16-5.21-4.28-7.73-7.45a8.3,8.3,0,0,0,1.58-2,8.42,8.42,0,0,0,.91-2.35c4,.59,8.32,1.82,10.32,3a5.08,5.08,0,0,1,1.85,6.93Z" transform="translate(-9 -9)"/></g></svg>